<svg xmlns="http://www.w3.org/2000/svg" version="1.1" xmlns:xlink="http://www.w3.org/1999/xlink" xmlns:svgjs="http://svgjs.dev/svgjs" width="1500" height="1500" viewBox="0 0 1500 1500"><rect width="1500" height="1500" fill="#000000"></rect><g transform="matrix(0.6666666666666666,0,0,0.6666666666666666,249.39393939393938,435.99032258064517)"><svg viewBox="0 0 396 248" data-background-color="#1a1a1a" preserveAspectRatio="xMidYMid meet" height="939" width="1500" xmlns="http://www.w3.org/2000/svg" xmlns:xlink="http://www.w3.org/1999/xlink"><g id="tight-bounds" transform="matrix(1,0,0,1,0.2400000000000091,0.4000000000000057)"><svg viewBox="0 0 395.52 247.2" height="247.2" width="395.52"><g><svg></svg></g><g><svg viewBox="0 0 395.52 247.2" height="247.2" width="395.52"><g transform="matrix(1,0,0,1,75.54432,94.25841534907082)"><svg viewBox="0 0 244.43135999999998 58.68316930185834" height="58.68316930185834" width="244.43135999999998"><g><svg viewBox="0 0 244.43135999999998 58.68316930185834" height="58.68316930185834" width="244.43135999999998"><g><svg viewBox="0 0 244.43135999999998 58.68316930185834" height="58.68316930185834" width="244.43135999999998"><g><svg viewBox="0 0 244.43135999999998 58.68316930185834" height="58.68316930185834" width="244.43135999999998"><g id="textblocktransform"><svg viewBox="0 0 244.43135999999998 58.68316930185834" height="58.68316930185834" width="244.43135999999998" id="textblock"><g><svg viewBox="0 0 244.43135999999998 58.68316930185834" height="58.68316930185834" width="244.43135999999998"><g transform="matrix(1,0,0,1,0,0)"><svg width="244.43135999999998" viewBox="0.7 -34 199.08 47.8" height="58.68316930185834" data-palette-color="#61777f"><path d="M9.8 0.65L9.8 0.65Q7.35 0.65 5.28-0.08 3.2-0.8 1.95-2.1 0.7-3.4 0.7-5.15L0.7-5.15Q0.7-6.3 1.25-7.18 1.8-8.05 2.75-8.05L2.75-8.05Q3.35-8.05 4-7.6L4-7.6Q5.25-6.5 7.23-5.68 9.2-4.85 11.45-4.85L11.45-4.85Q14.4-4.85 16.28-6.03 18.15-7.2 18.15-9.2L18.15-9.2Q18.15-11.1 16.4-11.95 14.65-12.8 11.55-13.55L11.55-13.55Q9.25-14.1 7.13-14.95 5-15.8 3.63-17.32 2.25-18.85 2.25-21.4L2.25-21.4Q2.25-23.35 3.1-25.28 3.95-27.2 5.6-28.8 7.25-30.4 9.6-31.38 11.95-32.35 14.9-32.35L14.9-32.35Q17.1-32.35 18.93-31.85 20.75-31.35 21.83-30.45 22.9-29.55 22.9-28.25L22.9-28.25Q22.9-27.25 22.35-26.5 21.8-25.75 21.05-25.33 20.3-24.9 19.75-24.9L19.75-24.9Q19.25-24.9 18.4-25.35L18.4-25.35Q17-26.1 15.28-26.53 13.55-26.95 12.25-26.95L12.25-26.95Q9.8-26.95 8.28-25.88 6.75-24.8 6.75-23.35L6.75-23.35Q6.75-21.75 8.68-20.68 10.6-19.6 15.6-18.4L15.6-18.4Q19-17.5 20.9-15.93 22.8-14.35 22.8-10.95L22.8-10.95Q22.8-7.9 21.18-5.25 19.55-2.6 16.63-0.98 13.7 0.65 9.8 0.65ZM34.5 0.65L34.5 0.65Q31.05 0.65 28.97-1.23 26.9-3.1 26.9-6.75L26.9-6.75Q26.9-8.45 27.37-10.05 27.85-11.65 28.65-13.05L28.65-13.05Q27.85-12.55 27.45-12.55L27.45-12.55Q26.85-12.55 26.62-13.23 26.4-13.9 26.4-14.55L26.4-14.55Q26.4-15.7 26.87-16.38 27.35-17.05 27.8-17.4L27.8-17.4Q28.85-18.3 31.1-19.38 33.35-20.45 36.5-20.45L36.5-20.45Q40.8-20.45 43.17-18.05 45.55-15.65 45.55-11.35L45.55-11.35Q45.55-8 44.15-5.28 42.75-2.55 40.27-0.95 37.8 0.65 34.5 0.65ZM36.05-4.45L36.05-4.45Q38.55-4.45 40.27-6.03 42-7.6 42-10.2L42-10.2Q42-12.9 40.25-14.05 38.5-15.2 36.2-15.2L36.2-15.2Q35.15-15.2 34.3-15 33.45-14.8 32.7-14.5L32.7-14.5Q32-13.5 31.45-12.25 30.9-11 30.9-9.5L30.9-9.5Q30.9-7 32.4-5.73 33.9-4.45 36.05-4.45ZM55.65 0.65L55.65 0.65Q53.15 0.65 51.77-0.8 50.4-2.25 50.4-5L50.4-5Q50.4-6.95 50.95-9L50.95-9Q51.2-9.85 51.35-10.7 51.5-11.55 51.5-12.4L51.5-12.4Q51.5-14.6 50.15-15.25L50.15-15.25Q48.85-15.95 48.85-16.75L48.85-16.75Q48.85-17.55 49.52-18.35 50.2-19.15 51.2-19.68 52.2-20.2 53.2-20.2L53.2-20.2Q56.05-20.2 56.05-15.55L56.05-15.55Q56.05-14.05 55.82-12.78 55.6-11.5 55.3-10.35L55.3-10.35Q55.1-9.55 54.97-8.75 54.85-7.95 54.85-7.35L54.85-7.35Q54.85-4.85 57.3-4.85L57.3-4.85Q59.6-4.85 61.6-7.3 63.6-9.75 64.9-14.15L64.9-14.15 64.84-15.1Q64.75-17.6 65.72-18.9 66.7-20.2 68.59-20.2L68.59-20.2Q70.25-20.2 70.25-19.15L70.25-19.15Q70.25-18.8 70.12-18.25 70-17.7 69.75-16.95L69.75-16.95Q69.25-15.1 68.9-13.03 68.55-10.95 68.55-9.2L68.55-9.2Q68.55-7.25 69.15-5.98 69.75-4.7 71.4-4.25L71.4-4.25Q71.84-4.2 72.12-3.98 72.4-3.75 72.4-3.05L72.4-3.05Q72.4-1.85 71.4-0.7 70.4 0.45 68.5 0.45L68.5 0.45Q64.84 0.45 64.84-4.7L64.84-4.7Q64.84-5.6 65-7.4L65-7.4 64.9-7.45Q61.75 0.65 55.65 0.65ZM78.94 0.5L78.94 0.5Q77.49 0.5 76.79-0.3 76.09-1.1 76.09-3.1L76.09-3.1Q76.09-4.05 76.24-5.55 76.39-7.05 76.59-8.8L76.59-8.8Q76.89-10.95 77.12-13.3 77.34-15.65 77.34-17.8L77.34-17.8Q77.34-20.85 77.07-24.13 76.79-27.4 75.54-29.85L75.54-29.85Q75.09-30.85 75.09-31.3L75.09-31.3Q75.09-31.95 75.67-32.55 76.24-33.15 77.09-33.58 77.94-34 78.74-34L78.74-34Q80.04-34 80.69-32.83 81.34-31.65 81.54-29.63 81.74-27.6 81.74-25L81.74-25Q81.74-21.05 81.42-18.15 81.09-15.25 80.79-13.05L80.79-13.05Q80.59-11.6 80.42-10.3 80.24-9 80.24-7.95L80.24-7.95Q80.24-6.2 80.82-5.43 81.39-4.65 82.69-3.9L82.69-3.9Q83.04-3.7 83.22-3.53 83.39-3.35 83.39-3L83.39-3Q83.39-2.6 82.99-1.75 82.59-0.9 81.62-0.2 80.64 0.5 78.94 0.5ZM94.54 0.65L94.54 0.65Q92.09 0.65 90.02-0.08 87.94-0.8 86.69-2.1 85.44-3.4 85.44-5.15L85.44-5.15Q85.44-6.3 85.99-7.18 86.54-8.05 87.49-8.05L87.49-8.05Q88.09-8.05 88.74-7.6L88.74-7.6Q89.99-6.5 91.97-5.68 93.94-4.85 96.19-4.85L96.19-4.85Q99.14-4.85 101.02-6.03 102.89-7.2 102.89-9.2L102.89-9.2Q102.89-11.1 101.14-11.95 99.39-12.8 96.29-13.55L96.29-13.55Q93.99-14.1 91.87-14.95 89.74-15.8 88.37-17.32 86.99-18.85 86.99-21.4L86.99-21.4Q86.99-23.35 87.84-25.28 88.69-27.2 90.34-28.8 91.99-30.4 94.34-31.38 96.69-32.35 99.64-32.35L99.64-32.35Q101.84-32.35 103.67-31.85 105.49-31.35 106.57-30.45 107.64-29.55 107.64-28.25L107.64-28.25Q107.64-27.25 107.09-26.5 106.54-25.75 105.79-25.33 105.04-24.9 104.49-24.9L104.49-24.9Q103.99-24.9 103.14-25.35L103.14-25.35Q101.74-26.1 100.02-26.53 98.29-26.95 96.99-26.95L96.99-26.95Q94.54-26.95 93.02-25.88 91.49-24.8 91.49-23.35L91.49-23.35Q91.49-21.75 93.42-20.68 95.34-19.6 100.34-18.4L100.34-18.4Q103.74-17.5 105.64-15.93 107.54-14.35 107.54-10.95L107.54-10.95Q107.54-7.9 105.92-5.25 104.29-2.6 101.37-0.98 98.44 0.65 94.54 0.65ZM114.29 13.8L114.29 13.8Q112.79 13.8 111.94 12.98 111.09 12.15 111.09 10L111.09 10Q111.09 8.55 111.41 6.35 111.74 4.15 112.19 1.7L112.19 1.7Q112.54-0.25 112.86-2.4 113.19-4.55 113.41-6.63 113.64-8.7 113.64-10.35L113.64-10.35Q113.64-12.25 113.21-13.65 112.79-15.05 111.49-15.45L111.49-15.45Q110.99-15.65 110.59-15.9 110.19-16.15 110.19-16.7L110.19-16.7Q110.19-17.4 110.74-18.25 111.29-19.1 112.31-19.73 113.34-20.35 114.64-20.35L114.64-20.35Q116.34-20.35 116.99-19.18 117.64-18 117.64-16.1L117.64-16.1Q117.64-15.55 117.59-14.98 117.54-14.4 117.44-13.8L117.44-13.8Q118.89-16.6 121.26-18.53 123.64-20.45 126.64-20.45L126.64-20.45Q129.64-20.45 131.36-18.43 133.09-16.4 133.09-12.95L133.09-12.95Q133.09-10.4 132.29-7.98 131.49-5.55 130.04-3.6 128.59-1.65 126.56-0.5 124.54 0.65 122.04 0.65L122.04 0.65Q120.24 0.65 118.89 0.03 117.54-0.6 116.54-1.6L116.54-1.6Q116.34-0.3 116.16 1.55 115.99 3.4 115.99 5L115.99 5Q115.99 6.85 116.41 7.9 116.84 8.95 118.09 9.5L118.09 9.5Q118.64 9.75 118.64 10.3L118.64 10.3Q118.64 10.7 118.24 11.55 117.84 12.4 116.91 13.1 115.99 13.8 114.29 13.8ZM123.19-4.75L123.19-4.75Q126.04-4.75 127.59-6.55 129.14-8.35 129.14-10.7L129.14-10.7Q129.14-12.75 128.04-13.88 126.94-15 125.09-15L125.09-15Q123.19-15 121.74-13.88 120.29-12.75 119.26-10.95 118.24-9.15 117.59-7.1L117.59-7.1Q120.09-4.75 123.19-4.75ZM143.14 0.65L143.14 0.65Q140.14 0.65 138.31-1.23 136.49-3.1 136.49-6.6L136.49-6.6Q136.49-9.1 137.46-11.58 138.44-14.05 140.29-16.05 142.14-18.05 144.74-19.25 147.34-20.45 150.59-20.45L150.59-20.45Q153.59-20.45 155.71-19.43 157.84-18.4 157.84-16.65L157.84-16.65Q157.84-16.2 157.74-15.48 157.64-14.75 157.49-14.3L157.49-14.3Q157.34-13.9 157.06-13.58 156.79-13.25 156.34-13.25L156.34-13.25Q156.14-13.25 155.59-13.4L155.59-13.4Q155.39-12.35 155.29-11.35 155.19-10.35 155.19-9.35L155.19-9.35Q155.19-7.45 155.76-5.98 156.34-4.5 158.04-4.15L158.04-4.15Q158.49-4.05 158.76-3.85 159.04-3.65 159.04-3L159.04-3Q159.04-2.45 158.76-1.6 158.49-0.75 157.71-0.08 156.94 0.6 155.49 0.6L155.49 0.6Q153.54 0.6 152.49-0.83 151.44-2.25 151.44-4.9L151.44-4.9Q150.09-2.45 148.01-0.9 145.94 0.65 143.14 0.65ZM144.74-4.55L144.74-4.55Q146.74-4.55 148.26-5.8 149.79-7.05 150.64-8.95L150.64-8.95Q151.19-10.15 151.49-11.58 151.79-13 151.89-14.4L151.89-14.4Q151.04-14.8 149.94-15.05 148.84-15.3 147.64-15.3L147.64-15.3Q144.59-15.3 142.61-13.5 140.64-11.7 140.64-9L140.64-9Q140.64-7 141.74-5.78 142.84-4.55 144.74-4.55ZM169.38 0.65L169.38 0.65Q165.88 0.65 163.91-1.48 161.93-3.6 161.93-7.4L161.93-7.4Q161.93-11.15 163.53-14.1 165.13-17.05 167.93-18.75 170.73-20.45 174.28-20.45L174.28-20.45Q176.68-20.45 178.08-19.65 179.48-18.85 179.48-17.45L179.48-17.45Q179.48-16.2 178.28-15L178.28-15Q177.83-14.55 177.11-14.18 176.38-13.8 175.98-13.8L175.98-13.8Q175.53-13.8 175.23-14.15L175.23-14.15Q174.73-14.7 173.93-15.2 173.13-15.7 171.68-15.7L171.68-15.7Q169.23-15.7 167.68-14.03 166.13-12.35 166.13-9.65L166.13-9.65Q166.13-7.2 167.53-5.7 168.93-4.2 171.23-4.2L171.23-4.2Q172.43-4.2 173.86-4.63 175.28-5.05 176.38-5.85L176.38-5.85Q176.93-6.35 177.53-6.35L177.53-6.35Q178.53-6.35 178.53-5.1L178.53-5.1Q178.53-3.45 176.88-1.95L176.88-1.95Q175.63-0.8 173.56-0.08 171.48 0.65 169.38 0.65ZM189.73 0.65L189.73 0.65Q185.93 0.65 183.81-1.53 181.68-3.7 181.68-7.6L181.68-7.6Q181.68-11.15 183.23-14.05 184.78-16.95 187.41-18.68 190.03-20.4 193.18-20.4L193.18-20.4Q196.18-20.4 197.98-18.93 199.78-17.45 199.78-15L199.78-15Q199.78-13.05 198.58-11.4 197.38-9.75 195.38-8.78 193.38-7.8 190.93-7.8L190.93-7.8Q187.93-7.8 186.03-9.15L186.03-9.15Q186.08-6.85 187.61-5.45 189.13-4.05 191.53-4.05L191.53-4.05Q192.98-4.05 194.51-4.58 196.03-5.1 197.13-6L197.13-6Q197.83-6.6 198.43-6.6L198.43-6.6Q198.93-6.6 199.26-6.28 199.58-5.95 199.58-5.45L199.58-5.45Q199.58-4.35 197.68-2.55L197.68-2.55Q194.33 0.65 189.73 0.65ZM190.48-11.1L190.48-11.1Q192.28-11.1 193.48-11.85 194.68-12.6 194.68-13.75L194.68-13.75Q194.68-14.7 193.88-15.23 193.08-15.75 191.68-15.75L191.68-15.75Q189.83-15.75 188.46-14.78 187.08-13.8 186.48-12.05L186.48-12.05Q187.18-11.6 188.28-11.35 189.38-11.1 190.48-11.1Z" opacity="1" transform="matrix(1,0,0,1,0,0)" fill="#ffffff" class="wordmark-text-0" data-fill-palette-color="primary" id="text-0"></path></svg></g></svg></g></svg></g></svg></g></svg></g></svg></g></svg></g><g><path d="M245.816 0c68.262 0 123.6 55.338 123.6 123.6 0 68.262-55.338 123.6-123.6 123.6-55.642 0-102.696-36.767-118.194-87.332l2.771 0c15.407 49.081 61.257 84.686 115.423 84.686 66.801 0 120.954-54.153 120.954-120.954 0-66.801-54.153-120.954-120.954-120.954-54.165 0-100.015 35.604-115.423 84.686l-2.771 0c15.497-50.564 62.552-87.332 118.194-87.332z" fill="#ffffff" stroke="transparent" data-fill-palette-color="tertiary"></path></g></svg></g><defs></defs></svg><rect width="395.52" height="247.2" fill="none" stroke="none" visibility="hidden"></rect></g></svg></g></svg>